HIERARCHY
ROOT Hips
{
    OFFSET   0.000000   0.000000   0.000000
    CHANNELS 6 Xposition Yposition Zposition Zrotation Xrotation Yrotation
    JOINT Chest
    {
        OFFSET   0.000000   8.007240   0.000000
        CHANNELS 3 Zrotation Xrotation Yrotation
        JOINT Chest2
        {
            OFFSET   0.000000  22.077100   0.000000
            CHANNELS 3 Zrotation Xrotation Yrotation
            JOINT Neck
            {
                OFFSET   0.000000  23.254800   0.000000
                CHANNELS 3 Zrotation Xrotation Yrotation
                JOINT Head
                {
                    OFFSET   0.000000  14.370000   1.956600
                    CHANNELS 3 Zrotation Xrotation Yrotation
                    End Site
                    {
                        OFFSET   0.000000  19.566000   0.000000
                    }
                }
            }
            JOINT LeftCollar
            {
                OFFSET   3.911900  19.017000  -0.467064
                CHANNELS 3 Zrotation Xrotation Yrotation
                JOINT LeftShoulder
                {
                    OFFSET  10.383700   0.000000   0.000000
                    CHANNELS 3 Zrotation Xrotation Yrotation
                    JOINT LeftElbow
                    {
                        OFFSET  26.662100   0.001476   0.000517
                        CHANNELS 3 Zrotation Xrotation Yrotation
                        JOINT LeftWrist
                        {
                            OFFSET  28.869000  -0.000025  -0.000106
                            CHANNELS 3 Zrotation Xrotation Yrotation
                            JOINT LeftFinger0
                            {
                                OFFSET   2.044660  -2.323460   3.252850
                                CHANNELS 3 Zrotation Xrotation Yrotation
                                JOINT LeftFinger01
                                {
                                    OFFSET   3.088130   0.000000   0.000000
                                    CHANNELS 3 Zrotation Xrotation Yrotation
                                    JOINT LeftFinger02
                                    {
                                        OFFSET   2.639460   0.000000   0.000000
                                        CHANNELS 3 Zrotation Xrotation Yrotation
                                        End Site
                                        {
                                            OFFSET   2.582190   0.000000   0.000000
                                        }
                                    }
                                }
                            }
                            JOINT LeftFinger1
                            {
                                OFFSET   8.364480   0.000000   3.252850
                                CHANNELS 3 Zrotation Xrotation Yrotation
                                JOINT LeftFinger11
                                {
                                    OFFSET   4.646930   0.000000   0.000000
                                    CHANNELS 3 Zrotation Xrotation Yrotation
                                    JOINT LeftFinger12
                                    {
                                        OFFSET   2.323460   0.000000   0.000000
                                        CHANNELS 3 Zrotation Xrotation Yrotation
                                        End Site
                                        {
                                            OFFSET   2.273050   0.000000   0.000000
                                        }
                                    }
                                }
                            }
                            JOINT LeftFinger2
                            {
                                OFFSET   8.364490   0.000015   1.078090
                                CHANNELS 3 Zrotation Xrotation Yrotation
                                JOINT LeftFinger21
                                {
                                    OFFSET   5.111620   0.000000   0.000000
                                    CHANNELS 3 Zrotation Xrotation Yrotation
                                    JOINT LeftFinger22
                                    {
                                        OFFSET   2.788160   0.000016   0.000000
                                        CHANNELS 3 Zrotation Xrotation Yrotation
                                        End Site
                                        {
                                            OFFSET   2.727660   0.000000   0.000000
                                        }
                                    }
                                }
                            }
                            JOINT LeftFinger3
                            {
                                OFFSET   7.899780   0.000017  -1.078090
                                CHANNELS 3 Zrotation Xrotation Yrotation
                                JOINT LeftFinger31
                                {
                                    OFFSET   4.646930   0.000000   0.000000
                                    CHANNELS 3 Zrotation Xrotation Yrotation
                                    JOINT LeftFinger32
                                    {
                                        OFFSET   2.323470   0.000000   0.000000
                                        CHANNELS 3 Zrotation Xrotation Yrotation
                                        End Site
                                        {
                                            OFFSET   2.273050   0.000000   0.000000
                                        }
                                    }
                                }
                            }
                            JOINT LeftFinger4
                            {
                                OFFSET   7.435090   0.000000  -3.252850
                                CHANNELS 3 Zrotation Xrotation Yrotation
                                JOINT LeftFinger41
                                {
                                    OFFSET   3.717550   0.000000   0.000000
                                    CHANNELS 3 Zrotation Xrotation Yrotation
                                    JOINT LeftFinger42
                                    {
                                        OFFSET   1.858770   0.000000   0.000000
                                        CHANNELS 3 Zrotation Xrotation Yrotation
                                        End Site
                                        {
                                            OFFSET   1.818440   0.000000   0.000000
                                        }
                                    }
                                }
                            }
                        }
                    }
                }
            }
            JOINT RightCollar
            {
                OFFSET  -3.911900  19.017000  -0.467063
                CHANNELS 3 Zrotation Xrotation Yrotation
                JOINT RightShoulder
                {
                    OFFSET -10.383700   0.000019   0.000000
                    CHANNELS 3 Zrotation Xrotation Yrotation
                    JOINT RightElbow
                    {
                        OFFSET -26.662100   0.001175   0.000102
                        CHANNELS 3 Zrotation Xrotation Yrotation
                        JOINT RightWrist
                        {
                            OFFSET -28.869000   0.000016  -0.000079
                            CHANNELS 3 Zrotation Xrotation Yrotation
                            JOINT RightFinger0
                            {
                                OFFSET  -2.044660  -2.323490   3.252850
                                CHANNELS 3 Zrotation Xrotation Yrotation
                                JOINT RightFinger01
                                {
                                    OFFSET  -3.088140   0.000000   0.000000
                                    CHANNELS 3 Zrotation Xrotation Yrotation
                                    JOINT RightFinger02
                                    {
                                        OFFSET  -2.639460   0.000000   0.000000
                                        CHANNELS 3 Zrotation Xrotation Yrotation
                                        End Site
                                        {
                                            OFFSET  -2.582190   0.000000   0.000000
                                        }
                                    }
                                }
                            }
                            JOINT RightFinger1
                            {
                                OFFSET  -8.364480   0.000000   3.252850
                                CHANNELS 3 Zrotation Xrotation Yrotation
                                JOINT RightFinger11
                                {
                                    OFFSET  -4.646930   0.000000   0.000000
                                    CHANNELS 3 Zrotation Xrotation Yrotation
                                    JOINT RightFinger12
                                    {
                                        OFFSET  -2.323470   0.000000   0.000000
                                        CHANNELS 3 Zrotation Xrotation Yrotation
                                        End Site
                                        {
                                            OFFSET  -2.273050   0.000000   0.000000
                                        }
                                    }
                                }
                            }
                            JOINT RightFinger2
                            {
                                OFFSET  -8.364480   0.000000   1.078090
                                CHANNELS 3 Zrotation Xrotation Yrotation
                                JOINT RightFinger21
                                {
                                    OFFSET  -5.111620   0.000000   0.000000
                                    CHANNELS 3 Zrotation Xrotation Yrotation
                                    JOINT RightFinger22
                                    {
                                        OFFSET  -2.788160   0.000000   0.000000
                                        CHANNELS 3 Zrotation Xrotation Yrotation
                                        End Site
                                        {
                                            OFFSET  -2.727660   0.000000   0.000000
                                        }
                                    }
                                }
                            }
                            JOINT RightFinger3
                            {
                                OFFSET  -7.899780   0.000000  -1.078090
                                CHANNELS 3 Zrotation Xrotation Yrotation
                                JOINT RightFinger31
                                {
                                    OFFSET  -4.646930   0.000000   0.000000
                                    CHANNELS 3 Zrotation Xrotation Yrotation
                                    JOINT RightFinger32
                                    {
                                        OFFSET  -2.323470   0.000000   0.000000
                                        CHANNELS 3 Zrotation Xrotation Yrotation
                                        End Site
                                        {
                                            OFFSET  -2.273050   0.000000   0.000000
                                        }
                                    }
                                }
                            }
                            JOINT RightFinger4
                            {
                                OFFSET  -7.435090   0.000000  -3.252850
                                CHANNELS 3 Zrotation Xrotation Yrotation
                                JOINT RightFinger41
                                {
                                    OFFSET  -3.717550   0.000000   0.000000
                                    CHANNELS 3 Zrotation Xrotation Yrotation
                                    JOINT RightFinger42
                                    {
                                        OFFSET  -1.858770   0.000000   0.000000
                                        CHANNELS 3 Zrotation Xrotation Yrotation
                                        End Site
                                        {
                                            OFFSET  -1.818440   0.000000   0.000000
                                        }
                                    }
                                }
                            }
                        }
                    }
                }
            }
        }
    }
    JOINT LeftHip
    {
        OFFSET   9.783040   0.000000   0.000000
        CHANNELS 3 Zrotation Xrotation Yrotation
        JOINT LeftKnee
        {
            OFFSET   0.000032 -41.789100  -0.002222
            CHANNELS 3 Zrotation Xrotation Yrotation
            JOINT LeftAnkle
            {
                OFFSET   0.000087 -41.133200  -0.000135
                CHANNELS 3 Zrotation Xrotation Yrotation
                JOINT LeftToe
                {
                    OFFSET   0.000000  -6.358960  14.674500
                    CHANNELS 3 Zrotation Xrotation Yrotation
                    End Site
                    {
                        OFFSET   0.000000   0.000000   3.913200
                    }
                }
            }
        }
    }
    JOINT RightHip
    {
        OFFSET  -9.783040   0.000000   0.000000
        CHANNELS 3 Zrotation Xrotation Yrotation
        JOINT RightKnee
        {
            OFFSET   0.000047 -41.789100  -0.000896
            CHANNELS 3 Zrotation Xrotation Yrotation
            JOINT RightAnkle
            {
                OFFSET  -0.000117 -41.133300  -0.000248
                CHANNELS 3 Zrotation Xrotation Yrotation
                JOINT RightToe
                {
                    OFFSET   0.000000  -6.358970  14.674500
                    CHANNELS 3 Zrotation Xrotation Yrotation
                    End Site
                    {
                        OFFSET   0.000000   0.000000   3.913200
                    }
                }
            }
        }
    }
}
MOTION
Frames: 4
Frame Time:   0.016667
 -1.856010  89.465200   1.835740  -1.921430  -3.569540  -1.257210   0.627993   2.412710  -1.405930   1.316840   4.809110  -2.842040   1.185760   0.807688  -0.010516   1.947280   1.646790   4.260490  -3.448170   1.314680   1.800340 -69.730200  15.690400  -5.633770  -2.209370  -4.820400  -8.174770   3.557290  -7.656030  10.383400  40.253700  28.820600 -68.826100 -18.323500   0.000108   0.000098  -4.161760  -0.001658   0.011950 -34.202900   8.272800 -11.953000 -28.694000  -0.002728  -0.005847 -20.099700  -0.003272  -0.004853 -28.481900   4.374330  -7.998360 -43.033500  -0.011723  -0.005072 -28.660300  -0.004724  -0.004116 -28.771300   1.192500  -2.170540 -42.192100   0.001329  -0.000587 -28.099900   0.000000  -0.000455 -36.652500  -0.157054   0.223853 -54.979200   0.001328   0.001523 -36.616200   0.009238   0.001346   5.718070  -0.097248  10.116900  72.729600  10.490100  -2.347730   1.148800  -2.417810   6.246750 -12.853100 -11.896900  -0.731966 -34.855700  30.414300  65.690700  34.705900  -0.000521  -0.002988  12.361500  -0.000250   0.003540  29.567300  -0.028868  -0.055886  24.191400   0.007115  -0.000429  16.934000   0.011353  -0.006600  27.771300  -0.498158  -0.945879  30.644200   0.003440  -0.002949  20.409100  -0.000565  -0.009115  27.392500  -2.413700  -4.646400  29.156100   0.007636  -0.003510  19.418000   0.004596  -0.010155  32.815800  -2.842480  -4.397520  49.387400   0.004444  -0.000319  32.892000  -0.000716  -0.003237   3.239210   7.409250   2.219080   1.274800   0.824427  13.103100  -3.907650  -3.358830   0.950874  -0.000000   0.000000   0.000000   1.354220   2.859490  -2.468860   2.082820   3.527150  -4.571840  -5.721660  -2.125730  -4.571140  -0.000000   0.000000  -0.000000
 -1.856310  89.465100   1.834830  -1.919870  -3.572620  -1.230980   0.628077   2.419260  -1.402200   1.317020   4.822230  -2.834660   1.185490   0.807755  -0.010518   1.947270   1.643780   4.257260  -3.453130   1.317820   1.791630 -69.745600  15.693100  -5.636340  -2.224500  -4.827820  -8.194960   3.550330  -7.645070  10.363200  40.285500  28.836000 -68.820100 -18.306300   0.000114   0.000084  -4.153180  -0.001673   0.011951 -34.210800   8.267230 -11.942100 -28.699700  -0.002715  -0.005842 -20.099800  -0.003269  -0.004846 -28.484200   4.366280  -7.983560 -42.995100  -0.011718  -0.005069 -28.634700  -0.004723  -0.004108 -28.772100   1.179680  -2.147190 -42.207400   0.001335  -0.000575 -28.110100   0.000000  -0.000438 -36.661500  -0.157113   0.224193 -54.992600   0.001334   0.001531 -36.625100   0.009234   0.001353   5.719520  -0.104184  10.115500  72.736800  10.508800  -2.350360   1.158650  -2.428920   6.246800 -12.837400 -11.895100  -0.743711 -34.842500  30.409900  65.708200  34.714000  -0.000521  -0.002983  12.361800  -0.000245   0.003531  29.590500  -0.029204  -0.055886  24.210500   0.007111  -0.000429  16.947300   0.011352  -0.006599  27.779500  -0.509985  -0.967921  30.691800   0.003437  -0.002947  20.440700  -0.000565  -0.009114  27.402000  -2.422830  -4.661440  29.206000   0.007635  -0.003508  19.451200   0.004592  -0.010154  32.842900  -2.854760  -4.410490  49.429300   0.004443  -0.000319  32.919900  -0.000718  -0.003234   3.239020   7.409260   2.219270   1.271330   0.821285  13.089800  -3.908100  -3.351520   0.940710   0.000000   0.000000   0.000000   1.354210   2.859040  -2.468790   2.084140   3.527610  -4.592650  -5.721980  -2.126080  -4.579940   0.000000   0.000000   0.000000
 -1.856610  89.465100   1.832730  -1.917230  -3.579240  -1.186130   0.628182   2.431290  -1.394860   1.317240   4.846370  -2.820140   1.185220   0.807823  -0.010520   1.947730   1.635690   4.250810  -3.462260   1.323840   1.776310 -69.772600  15.707600  -5.643310  -2.250110  -4.847140  -8.227810   3.538260  -7.628070  10.329200  40.326000  28.860500 -68.814600 -18.289200   0.000129   0.000070  -4.144610  -0.001702   0.011954 -34.220500   8.257700 -11.924400 -28.705400  -0.002681  -0.005828 -20.100000  -0.003258  -0.004827 -28.488500   4.351310  -7.955990 -42.939300  -0.011703  -0.005061 -28.597600  -0.004720  -0.004092 -28.773400   1.157670  -2.107090 -42.222700   0.001351  -0.000541 -28.120300   0.000000  -0.000397 -36.670400  -0.157197   0.224533 -55.006000   0.001348   0.001550 -36.634000   0.009223   0.001369   5.721890  -0.116278  10.112100  72.748900  10.539500  -2.358520   1.176570  -2.449230   6.246880 -12.804000 -11.887000  -0.759366 -34.824800  30.403500  65.733900  34.722000  -0.000522  -0.002978  12.362100  -0.000241   0.003522  29.625800  -0.029540  -0.055885  24.239400   0.007101  -0.000427  16.967600   0.011350  -0.006595  27.791600  -0.521812  -0.989963  30.761600   0.003428  -0.002942  20.487200  -0.000566  -0.009111  27.417300  -2.431960  -4.676480  29.284500   0.007631  -0.003503  19.503500   0.004582  -0.010151  32.886400  -2.867040  -4.423450  49.495800   0.004439  -0.000317  32.964200  -0.000722  -0.003227   3.238720   7.409320   2.219640   1.266330   0.804554  13.068600  -3.907640  -3.333630   0.921576  -0.000000   0.000000   0.000000   1.354260   2.858280  -2.468670   2.086440   3.529780  -4.627690  -5.722350  -2.126410  -4.594640  -0.000000   0.000000  -0.000000
 -1.855300  89.465100   1.829270  -1.915090  -3.587520  -1.148640   0.628186   2.442840  -1.386360   1.317200   4.869600  -2.803280   1.186690   0.802637  -0.010499   1.951460   1.622810   4.244670  -3.471430   1.330860   1.762600 -69.797100  15.741600  -5.654960  -2.271680  -4.879790  -8.252280   3.527070  -7.617740  10.301200  40.345100  28.879600 -68.820300 -18.298000   0.000149   0.000101  -4.148990  -0.001732   0.011959 -34.223500   8.249870 -11.911900 -28.705600  -0.002630  -0.005805 -20.099700  -0.003237  -0.004797 -28.492900   4.335570  -7.926920 -42.908300  -0.011674  -0.005044 -28.577000  -0.004716  -0.004070 -28.774000   1.138680  -2.072500 -42.214300   0.001375  -0.000484 -28.114700   0.000040  -0.000335 -36.663500  -0.157233   0.222069 -54.995600   0.001368   0.001577 -36.627100   0.009205   0.001390   5.722720  -0.126492  10.107400  72.758800  10.563800  -2.373500   1.194150  -2.470360   6.244390 -12.759300 -11.867100  -0.763503 -34.817600  30.399000  65.747800  34.718600  -0.000515  -0.002988  12.359900  -0.000241   0.003538  29.647400  -0.027043  -0.049528  24.257000   0.007083  -0.000424  16.979900   0.011348  -0.006590  27.797800  -0.518000  -0.983043  30.796700   0.003414  -0.002934  20.510600  -0.000566  -0.009107  27.428600  -2.427170  -4.665640  29.338400   0.007626  -0.003495  19.539400   0.004566  -0.010146  32.918200  -2.862400  -4.412370  49.542800   0.004433  -0.000315  32.995500  -0.000729  -0.003215   3.237810   7.427380   2.220220   1.263970   0.760461  13.055000  -3.900280  -3.303880   0.901089   0.000000   0.000000  -0.000000   1.354580   2.857540  -2.468520   2.088420   3.536150  -4.657050  -5.721640  -2.125890  -4.605380   0.000000   0.000000   0.000000
